#!OML:ASF F:\VICON\USERDATA\INSTALL\Justin_Nancy\Justin_Nancy.ASF
:FULLY-SPECIFIED
:DEGREES
191
root 0.0476815 17.8345 -4.20799 -2.98025 4.70822 -3.25221
lowerback 6.88793 0.498121 1.93851
upperback 0.852364 0.91879 3.29084
thorax -3.00721 0.453018 2.22491
lowerneck -15.2511 -5.01559 -10.0413
upperneck 23.1325 -5.96221 6.05455
head 10.4199 -2.92999 3.02272
rclavicle 2.98922e-014 2.14687e-014
rhumerus -24.8422 -12.7041 -78.3743
rradius 30.9802
rwrist 6.77065
rhand -17.1333 6.72115
rfingers 7.12502
rthumb 9.10671 -23.0622
lclavicle 2.98922e-014 2.14687e-014
lhumerus -29.3997 5.96157 88.3012
lradius 26.3659
lwrist -9.1823
lhand -12.4342 28.9646
lfingers 7.12502
lthumb 13.6385 58.4978
rfemur -4.95782 3.40917 29.0467
rtibia 12.9814
rfoot -0.120547 -6.31589
rtoes 1.91632
lfemur -23.7341 3.35184 -14.4005
ltibia 72.3799
lfoot -5.3426 -4.88869
ltoes -10.4955
192
root 0.053448 17.8324 -4.15619 -2.93431 4.32741 -3.46259
lowerback 6.97753 0.595614 2.30049
upperback 0.753942 1.08409 3.29744
thorax -3.15688 0.530216 2.01187
lowerneck -14.957 -5.04158 -10.2143
upperneck 23.0908 -6.02255 6.20765
head 10.3651 -2.96065 3.10217
rclavicle 1.20513e-014 5.08889e-014
rhumerus -24.6913 -12.3153 -78.5254
rradius 31.4362
rwrist 5.96054
rhand -16.1372 8.41826
rfingers 7.12502
rthumb 10.0678 -21.3209
lclavicle 1.20513e-014 5.08889e-014
lhumerus -29.7735 6.06149 88.1064
lradius 26.5139
lwrist -10.0551
lhand -11.0697 31.645
lfingers 7.12502
lthumb 14.9533 61.0852
rfemur -5.18835 3.43585 29.3089
rtibia 13.6587
rfoot -0.654409 -6.12643
rtoes 2.26882
lfemur -24.1444 3.46281 -14.2362
ltibia 71.6896
lfoot -6.12182 -4.43616
ltoes -8.55497
193
root 0.0583456 17.8191 -4.10658 -2.89152 4.05729 -3.4991
lowerback 7.01102 0.691596 2.49228
upperback 0.729709 1.22802 3.26665
thorax -3.19876 0.598774 1.858
lowerneck -14.8138 -5.02346 -10.3319
upperneck 22.9902 -6.00399 6.31302
head 10.307 -2.95237 3.16344
rclavicle -2.51214e-014 -1.43125e-014
rhumerus -24.3781 -12.1455 -78.5731
rradius 31.8682
rwrist 5.62113
rhand -16.0348 10.8714
rfingers 7.12502
rthumb 10.1666 -18.863
lclavicle -2.51214e-014 -1.43125e-014
lhumerus -29.9483 6.04263 88.1555
lradius 26.2128
lwrist -9.18786
lhand -12.5075 30.1143
lfingers 7.12502
lthumb 13.5679 59.6522
rfemur -5.32178 3.45336 29.3676
rtibia 14.2923
rfoot -1.23166 -6.0136
rtoes 2.66597
lfemur -24.4152 3.55816 -14.291
ltibia 70.8874
lfoot -7.12948 -3.99888
ltoes -7.82496
194
root 0.0632151 17.8074 -4.05214 -2.82555 3.79501 -3.39689
lowerback 6.92435 0.779542 2.46524
upperback 0.724627 1.33783 3.23303
thorax -3.15689 0.653706 1.82869
lowerneck -14.7198 -4.99533 -10.2997
upperneck 22.8946 -5.95277 6.21493
head 10.2455 -2.93808 3.13022
rclavicle -1.39149e-015 -2.62396e-014
rhumerus -24.0199 -11.7236 -78.625
rradius 32.3566
rwrist 5.53236
rhand -16.3932 11.7846
rfingers 7.12502
rthumb 9.82079 -17.9664
lclavicle -1.39149e-015 -2.62396e-014
lhumerus -30.1679 6.70393 87.9143
lradius 26.0025
lwrist -10.1401
lhand -12.1757 30.0371
lfingers 7.12502
lthumb 13.8877 59.5534
rfemur -5.4453 3.53788 29.2695
rtibia 14.9359
rfoot -1.82098 -5.89985
rtoes 3.37391
lfemur -24.5319 3.56644 -14.5397
ltibia 69.9209
lfoot -8.40443 -3.46373
ltoes -8.49996
195
root 0.06899 17.8011 -3.99274 -2.79893 3.38084 -3.39292
lowerback 6.79109 0.889243 2.54854
upperback 0.771521 1.48055 3.20275
thorax -3.03292 0.724214 1.73912
lowerneck -14.7952 -4.98657 -10.2864
upperneck 22.9556 -5.92704 6.17054
head 10.2778 -2.92922 3.11527
rclavicle -8.69683e-016 -2.06736e-014
rhumerus -23.6335 -11.2156 -78.7828
rradius 32.9708
rwrist 5.29445
rhand -15.9463 10.6186
rfingers 7.12502
rthumb 10.2519 -19.1116
lclavicle -8.69683e-016 -2.06736e-014
lhumerus -30.3592 7.04706 87.7781
lradius 25.712
lwrist -10.028
lhand -12.6957 29.4484
lfingers 7.12502
lthumb 13.3865 58.9984
rfemur -5.66068 3.77167 29.305
rtibia 15.7492
rfoot -2.39839 -5.79175
rtoes 3.3982
lfemur -24.4535 3.55742 -14.6918
ltibia 68.7417
lfoot -9.60991 -2.72005
ltoes -9.14928
196
root 0.0788303 17.7904 -3.93522 -2.73774 2.94827 -3.38033
lowerback 6.67828 1.02003 2.6339
upperback 0.864812 1.65113 3.20035
thorax -2.87295 0.809265 1.67556
lowerneck -15.1616 -5.03272 -10.3888
upperneck 23.0769 -5.94321 6.21584
head 10.3989 -2.93465 3.14224
rclavicle -1.16538e-014 -3.02153e-014
rhumerus -23.1225 -10.7412 -78.9158
rradius 33.5371
rwrist 4.66699
rhand -15.8118 10.1963
rfingers 7.12502
rthumb 10.3817 -19.5274
lclavicle -1.16538e-014 -3.02153e-014
lhumerus -30.2432 7.84334 87.55
lradius 25.2236
lwrist -11.1525
lhand -12.1169 29.9565
lfingers 7.12502
lthumb 13.9444 59.4689
rfemur -5.97946 3.96571 29.3191
rtibia 16.6151
rfoot -3.02365 -5.701
rtoes 3.19417
lfemur -24.3185 3.59675 -14.8756
ltibia 67.4326
lfoot -10.924 -2.02681
ltoes -10.36
197
root 0.090688 17.7798 -3.87789 -2.66692 2.69769 -3.08493
lowerback 6.67009 1.10862 2.45006
upperback 0.90049 1.75066 3.10592
thorax -2.83497 0.860577 1.67229
lowerneck -15.6001 -5.08438 -10.3909
upperneck 23.2213 -5.95961 6.15812
head 10.5359 -2.94208 3.11439
rclavicle -1.41883e-014 8.74653e-015
rhumerus -22.7123 -10.2018 -79.0177
rradius 34.0528
rwrist 4.07475
rhand -15.8862 11.052
rfingers 7.12502
rthumb 10.3099 -18.6753
lclavicle -1.41883e-014 8.74653e-015
lhumerus -30.323 8.25538 87.3998
lradius 24.9358
lwrist -11.7988
lhand -12.3338 29.8242
lfingers 7.12502
lthumb 13.7353 59.3508
rfemur -6.21795 3.91038 28.9871
rtibia 17.3735
rfoot -3.54221 -5.58437
rtoes 3.20018
lfemur -24.0722 3.44423 -15.4031
ltibia 65.9783
lfoot -12.0187 -1.27479
ltoes -9.53832
198
root 0.0983311 17.7665 -3.82685 -2.60326 2.53406 -2.84189
lowerback 6.76433 1.16967 2.30107
upperback 0.79081 1.82571 2.98457
thorax -3.00256 0.897636 1.62053
lowerneck -15.5512 -5.0627 -10.2066
upperneck 23.2142 -5.95143 6.03443
head 10.5123 -2.93726 3.04069
rclavicle 7.65321e-015 8.74653e-015
rhumerus -22.5877 -9.92043 -79.1325
rradius 34.5336
rwrist 3.95887
rhand -16.3259 12.0249
rfingers 7.12502
rthumb 9.88575 -17.723
lclavicle 7.65321e-015 8.74653e-015
lhumerus -30.794 8.14695 87.2762
lradius 24.933
lwrist -11.5861
lhand -12.7198 29.2035
lfingers 7.12502
lthumb 13.3633 58.7549
rfemur -6.43021 3.92586 28.7225
rtibia 18.1121
rfoot -4.81182 -5.49999
rtoes 0.0874483
lfemur -23.8149 3.17017 -15.8509
ltibia 64.4391
lfoot -12.7898 -0.449479
ltoes -5.65398
199
root 0.100676 17.7486 -3.7814 -2.52687 2.285 -3.00181
lowerback 6.73716 1.24679 2.50712
upperback 0.725746 1.94433 2.96743
thorax -3.04873 0.953495 1.47636
lowerneck -15.3128 -4.97849 -9.7907
upperneck 22.9907 -5.89137 5.77546
head 10.356 -2.90557 2.88787
rclavicle 3.97569e-016 4.77083e-015
rhumerus -22.378 -9.81845 -79.294
rradius 35.0405
rwrist 3.8223
rhand -16.6485 12.7627
rfingers 7.12502
rthumb 9.57453 -16.9998
lclavicle 3.97569e-016 4.77083e-015
lhumerus -31.0569 8.12607 87.1481
lradius 24.752
lwrist -11.3037
lhand -13.0304 28.6485
lfingers 7.12502
lthumb 13.0639 58.2194
rfemur -6.68805 4.18919 28.9442
rtibia 18.8431
rfoot -4.91342 -5.76558
rtoes 1.3149
lfemur -23.6305 2.97855 -15.7913
ltibia 62.8422
lfoot -13.6065 0.32502
ltoes -2.37787
200
root 0.107174 17.7337 -3.72576 -2.45085 2.07084 -2.96909
lowerback 6.43451 1.31959 2.53132
upperback 0.859361 2.02314 2.95744
thorax -2.74071 0.995031 1.45378
lowerneck -15.5645 -5.01046 -9.63379
upperneck 22.9098 -5.90255 5.59467
head 10.3648 -2.9127 2.79012
rclavicle -1.9307e-014 -1.82882e-014
rhumerus -21.8449 -9.51454 -79.3983
rradius 35.6171
rwrist 3.39488
rhand -16.5271 13.0712
rfingers 7.12502
rthumb 9.69159 -16.6858
lclavicle -1.9307e-014 -1.82882e-014
lhumerus -30.9429 8.42484 87.1013
lradius 24.392
lwrist -11.3314
lhand -13.3017 28.4218
lfingers 7.12502
lthumb 12.8023 58.0092
rfemur -6.88084 4.25468 28.9364
rtibia 19.5713
rfoot -5.11221 -5.9113
rtoes 1.94759
lfemur -23.3301 2.76137 -15.9907
ltibia 61.0964
lfoot -13.845 1.22193
ltoes -4.06776
201
root 0.118132 17.7164 -3.66946 -2.30057 1.88793 -2.85445
lowerback 6.17743 1.36505 2.5288
upperback 0.859784 2.07027 2.91373
thorax -2.59529 1.01944 1.41225
lowerneck -15.7008 -5.01433 -9.69999
upperneck 22.9243 -5.88601 5.62872
head 10.3982 -2.90477 2.8137
rclavicle 1.85864e-014 1.90833e-014
rhumerus -21.6054 -9.01914 -79.4874
rradius 36.2302
rwrist 3.02372
rhand -16.7021 13.5031
rfingers 7.12502
rthumb 9.52275 -16.2617
lclavicle 1.85864e-014 1.90833e-014
lhumerus -31.1319 8.5426 87.0392
lradius 24.2481
lwrist -11.6006
lhand -12.6783 28.9606
lfingers 7.12502
lthumb 13.4032 58.5094
rfemur -7.11611 4.22541 28.8036
rtibia 20.1952
rfoot -5.68201 -5.83099
rtoes 1.45741
lfemur -23.0349 2.55617 -16.3023
ltibia 59.2903
lfoot -14.8688 2.01271
ltoes -4.86835
202
root 0.129503 17.6967 -3.619 -2.10655 1.57155 -2.77649
lowerback 6.15978 1.41941 2.57233
upperback 0.607979 2.15326 2.85906
thorax -2.84236 1.05733 1.32175
lowerneck -15.3034 -4.92874 -9.7299
upperneck 22.8924 -5.80693 5.66819
head 10.3057 -2.87348 2.85037
rclavicle 2.39536e-014 2.14687e-014
rhumerus -21.8311 -8.37605 -79.5647
rradius 36.8994
rwrist 2.8061
rhand -16.6919 13.3673
rfingers 7.12502
rthumb 9.53265 -16.397
lclavicle 2.39536e-014 2.14687e-014
lhumerus -31.5268 9.17311 86.6603
lradius 23.7326
lwrist -12.4647
lhand -11.4723 28.9384
lfingers 7.12502
lthumb 14.5655 58.407
rfemur -7.47216 4.35321 28.6988
rtibia 20.8774
rfoot -6.19915 -5.62745
rtoes 1.74017
lfemur -22.682 2.37777 -16.5658
ltibia 57.3978
lfoot -15.6857 2.98487
ltoes -4.58729
203
root 0.138582 17.6857 -3.56593 -2.01755 1.20456 -2.84684
lowerback 6.15177 1.47065 2.72735
upperback 0.484867 2.23691 2.86942
thorax -2.96014 1.09561 1.2373
lowerneck -15.2143 -4.9263 -9.80305
upperneck 22.9518 -5.80181 5.68908
head 10.3131 -2.87739 2.87275
rclavicle -6.63444e-015 -8.74653e-015
rhumerus -21.7105 -8.02195 -79.6594
rradius 37.3715
rwrist 2.80133
rhand -16.4333 12.8899
rfingers 7.12502
rthumb 9.78211 -16.8629
lclavicle -6.63444e-015 -8.74653e-015
lhumerus -31.7315 9.96984 86.266
lradius 23.0007
lwrist -13.1568
lhand -12.6988 27.2521
lfingers 7.12502
lthumb 13.3835 56.8023
rfemur -7.77239 4.53893 28.7727
rtibia 21.7333
rfoot -6.80862 -5.51145
rtoes 2.1397
lfemur -22.1978 2.20112 -16.6312
ltibia 55.3971
lfoot -16.3165 3.88611
ltoes -4.47618
204
root 0.147584 17.6699 -3.51474 -1.9399 0.931363 -2.77998
lowerback 5.95708 1.49282 2.72806
upperback 0.545349 2.25379 2.84701
thorax -2.78763 1.10561 1.21847
lowerneck -15.4005 -4.95015 -9.9646
upperneck 22.9879 -5.81801 5.8527
head 10.374 -2.87746 2.9537
rclavicle 4.5969e-015 8.74653e-015
rhumerus -21.4215 -7.73983 -79.8399
rradius 38.0138
rwrist 2.67557
rhand -16.6566 12.6931
rfingers 7.12502
rthumb 9.56664 -17.0697
lclavicle 4.5969e-015 8.74653e-015
lhumerus -31.8523 10.4374 86.0744
lradius 22.7
lwrist -13.3739
lhand -13.3519 27.2516
lfingers 7.12502
lthumb 12.754 56.842
rfemur -8.14342 4.67328 28.6997
rtibia 22.6509
rfoot -7.47008 -5.51747
rtoes 1.67236
lfemur -21.607 1.86342 -16.8249
ltibia 53.2839
lfoot -16.9827 4.50753
ltoes -5.40171
205
root 0.159872 17.6434 -3.46034 -1.8601 0.821727 -2.45958
lowerback 5.64507 1.46897 2.46232
upperback 0.615374 2.18578 2.77472
thorax -2.54737 1.07666 1.30723
lowerneck -15.5743 -4.9346 -10.1564
upperneck 23.0386 -5.788 6.07886
head 10.4365 -2.85205 3.06979
rclavicle -1.65488e-014 -2.46493e-014
rhumerus -21.1227 -7.36803 -79.9903
rradius 38.5405
rwrist 2.47518
rhand -16.9626 12.715
rfingers 7.12502
rthumb 9.2714 -17.0611
lclavicle -1.65488e-014 -2.46493e-014
lhumerus -32.1153 10.7497 86.0021
lradius 22.7893
lwrist -13.7636
lhand -13.0087 27.959
lfingers 7.12502
lthumb 13.0848 57.5285
rfemur -8.47898 4.59724 28.315
rtibia 23.5334
rfoot -8.20062 -5.46937
rtoes 2.12032
lfemur -20.825 1.34847 -17.2963
ltibia 51.0738
lfoot -17.5313 4.57038
ltoes -2.72276
